<?xml version="1.0" standalone="no"?>
<!DOCTYPE svg PUBLIC "-//W3C//DTD SVG 20010904//EN"
 "http://www.w3.org/TR/2001/REC-SVG-20010904/DTD/svg10.dtd">
<svg version="1.0" xmlns="http://www.w3.org/2000/svg"
 width="1000.000000pt" height="1000.000000pt" viewBox="0 0 1000.000000 1000.000000"
 preserveAspectRatio="xMidYMid meet">
<metadata>
Created by potrace 1.14, written by Peter Selinger 2001-2017
</metadata>
<g transform="translate(0.000000,1000.000000) scale(0.100000,-0.100000)"
fill="#000000" stroke="none">
<path d="M263 7548 c7 -19 305 -705 326 -753 10 -22 91 -209 181 -415 89 -206
202 -466 251 -578 49 -111 89 -207 89 -211 0 -5 -181 -9 -402 -9 -222 0 -413
-1 -426 -1 l-22 -1 2 -586 3 -586 423 0 c232 0 422 -3 422 -8 0 -6 -310 -725
-364 -845 -8 -16 -28 -64 -46 -105 -18 -41 -39 -91 -48 -110 -9 -19 -16 -37
-17 -40 -1 -3 -8 -21 -17 -40 -8 -19 -55 -125 -103 -235 -47 -110 -93 -213
-100 -230 -7 -16 -36 -82 -63 -145 -27 -63 -59 -137 -71 -164 -11 -27 -21 -50
-21 -52 0 -2 777 -3 1727 -2 l1727 3 83 190 c46 105 90 205 98 224 8 18 15 36
15 38 0 3 13 34 30 70 17 35 30 66 30 68 0 3 12 30 26 62 15 32 32 72 39 88
48 109 129 295 140 320 7 17 20 46 28 65 82 188 350 808 357 826 l9 23 446 -1
c325 0 445 -4 442 -12 -11 -25 -110 -254 -128 -294 -11 -24 -48 -109 -83 -190
-35 -81 -154 -354 -264 -607 -110 -253 -240 -553 -290 -667 l-90 -208 642 0
642 0 43 103 c25 56 54 125 67 152 39 87 61 138 109 250 25 60 55 127 65 150
9 22 32 74 50 115 18 41 44 100 57 130 14 30 33 75 43 100 10 25 31 75 48 110
16 36 77 175 135 310 58 135 114 263 123 285 10 22 18 42 19 45 1 3 11 25 22
50 11 25 31 70 43 100 13 30 27 60 32 66 6 8 137 11 448 12 242 0 440 -1 440
-3 0 -4 -462 -1073 -480 -1110 -31 -64 -370 -850 -370 -857 0 -4 287 -8 639
-8 l638 0 66 152 c36 84 76 176 88 203 13 28 24 52 24 55 0 3 11 28 24 55 12
28 41 93 63 145 22 52 49 115 60 139 11 24 58 132 105 240 46 108 91 210 98
226 8 17 51 116 96 220 44 105 89 208 99 230 10 22 44 98 75 170 31 71 61 133
67 137 7 3 183 6 392 7 210 0 391 0 404 0 l22 1 0 585 c0 461 -3 585 -12 586
-7 0 -192 1 -412 1 l-398 1 -29 65 c-17 36 -37 82 -45 101 -9 20 -23 52 -31
71 -9 19 -67 154 -130 300 -63 146 -121 279 -128 295 -8 17 -76 172 -151 345
-75 173 -181 419 -236 545 -55 127 -102 236 -105 243 -4 9 -142 12 -644 12
-357 0 -639 -4 -639 -9 0 -8 18 -51 67 -161 45 -101 51 -115 83 -190 35 -82
46 -107 84 -193 14 -32 26 -59 26 -62 0 -2 13 -32 29 -67 40 -88 171 -388 171
-393 0 -2 13 -32 29 -67 31 -68 99 -224 191 -438 32 -74 77 -178 100 -230 23
-52 48 -111 55 -131 l13 -37 -442 1 -441 0 -40 91 c-21 50 -51 118 -66 151
-14 33 -54 123 -87 200 -33 77 -105 244 -160 370 -55 127 -162 372 -237 545
-75 173 -145 333 -154 355 -10 22 -40 91 -67 153 l-49 112 -642 0 -642 0 21
-47 c11 -27 29 -68 40 -92 11 -25 64 -146 118 -270 54 -124 137 -316 185 -426
96 -220 273 -628 397 -915 44 -102 84 -195 88 -206 l9 -22 -444 1 -444 0 -57
131 c-31 72 -65 149 -75 171 -9 22 -32 74 -49 115 -18 41 -40 93 -50 115 -10
22 -33 74 -50 115 -18 41 -40 93 -50 115 -10 22 -41 94 -70 160 -28 66 -60
138 -69 160 -57 129 -98 225 -235 540 l-152 350 -1728 3 c-1381 2 -1727 0
-1723 -10z m2697 -1211 c18 -42 95 -219 205 -472 7 -16 22 -50 33 -75 11 -25
30 -70 42 -100 13 -30 27 -59 32 -64 4 -6 8 -18 8 -27 0 -15 -35 -16 -440 -15
l-441 1 -110 255 c-61 140 -117 269 -125 287 -8 17 -14 36 -14 42 0 6 -4 11
-10 11 -5 0 -10 6 -10 14 0 7 -14 44 -31 82 -17 37 -35 78 -40 91 l-8 23 443
-1 443 0 23 -52z m320 -1937 c0 -8 -69 -174 -115 -275 -12 -27 -68 -156 -124
-286 l-103 -237 -441 2 c-289 1 -441 4 -440 11 2 8 161 381 193 450 5 11 25
55 44 98 20 42 36 79 36 82 0 2 11 29 25 59 14 30 29 66 34 79 l10 25 440 0
c243 0 441 -3 441 -8z"/>
</g>
</svg>
